<?xml version="1.0" encoding="UTF-8" standalone="no"?>
<!-- Created with Inkscape (http://www.inkscape.org/) -->

<svg
   xmlns:dc="http://purl.org/dc/elements/1.1/"
   xmlns:cc="http://creativecommons.org/ns#"
   xmlns:rdf="http://www.w3.org/1999/02/22-rdf-syntax-ns#"
   xmlns:svg="http://www.w3.org/2000/svg"
   xmlns="http://www.w3.org/2000/svg"
   xmlns:sodipodi="http://sodipodi.sourceforge.net/DTD/sodipodi-0.dtd"
   xmlns:inkscape="http://www.inkscape.org/namespaces/inkscape"
   width="744.09448819"
   height="1052.3622047"
   id="svg2"
   version="1.1"
   inkscape:version="0.48.5 r10040"
   sodipodi:docname="New document 1">
  <defs
     id="defs4" />
  <sodipodi:namedview
     id="base"
     pagecolor="#ffffff"
     bordercolor="#666666"
     borderopacity="1.0"
     inkscape:pageopacity="0.0"
     inkscape:pageshadow="2"
     inkscape:zoom="0.35"
     inkscape:cx="375"
     inkscape:cy="514.28571"
     inkscape:document-units="px"
     inkscape:current-layer="layer1"
     showgrid="false"
     inkscape:window-width="1366"
     inkscape:window-height="717"
     inkscape:window-x="0"
     inkscape:window-y="0"
     inkscape:window-maximized="1" />
  <metadata
     id="metadata7">
    <rdf:RDF>
      <cc:Work
         rdf:about="">
        <dc:format>image/svg+xml</dc:format>
        <dc:type
           rdf:resource="http://purl.org/dc/dcmitype/StillImage" />
        <dc:title></dc:title>
      </cc:Work>
    </rdf:RDF>
  </metadata>
  <g
     inkscape:label="Layer 1"
     inkscape:groupmode="layer"
     id="layer1">
    <g
       style="font-size:144px;font-style:normal;font-variant:normal;font-weight:bold;font-stretch:normal;text-align:center;line-height:125%;letter-spacing:0px;word-spacing:0px;text-anchor:middle;fill:#000000;fill-opacity:1;stroke:none;font-family:Comfortaa;-inkscape-font-specification:Comfortaa Bold"
       id="text2985">
      <path
         d="m 158.63113,353.4805 0,-97.59375 c 0,-1.03114 0.1875,-1.99208 0.5625,-2.88281 0.375,-0.93739 0.89062,-1.73427 1.54688,-2.39063 0.70312,-0.70301 1.49999,-1.24207 2.39062,-1.61719 0.89062,-0.37488 1.87499,-0.56238 2.95313,-0.5625 2.90623,1.2e-4 5.10936,1.33605 6.60937,4.00782 l 42.1875,84.30468 42.1875,-84.30468 c 1.6874,-2.67177 3.89052,-4.0077 6.60938,-4.00782 1.03114,1.2e-4 1.99207,0.18762 2.88281,0.5625 0.93739,0.37512 1.73426,0.91418 2.39063,1.61719 0.703,0.65636 1.24207,1.45324 1.61718,2.39063 0.37489,0.89073 0.56239,1.85167 0.5625,2.88281 l 0,97.59375 c -1.1e-4,2.0625 -0.72668,3.82032 -2.17968,5.27344 -1.45324,1.45312 -3.21105,2.17968 -5.27344,2.17968 -2.06261,0 -3.82042,-0.72656 -5.27344,-2.17968 -1.45323,-1.45312 -2.17979,-3.21094 -2.17969,-5.27344 l 0,-65.95313 -34.875,69.67969 c -1.45319,2.48438 -3.60944,3.72656 -6.46875,3.72656 -3.0938,0 -5.36724,-1.49999 -6.82031,-4.5 l -34.52344,-68.90625 0,65.95313 c -2e-5,2.0625 -0.72658,3.82032 -2.17968,5.27344 -1.45315,1.45312 -3.21096,2.17968 -5.27344,2.17968 -2.06251,0 -3.82032,-0.72656 -5.27344,-2.17968 -1.45313,-1.45312 -2.17969,-3.21094 -2.17969,-5.27344"
         style=""
         id="path2994" />
      <path
         d="m 321.75613,296.87894 c -3.46879,6e-5 -6.70316,0.65631 -9.70312,1.96875 -3.00003,1.31256 -5.60159,3.09381 -7.80469,5.34375 -2.20315,2.20318 -3.96096,4.80474 -5.27344,7.80468 -1.26564,3.00005 -1.89845,6.18755 -1.89843,9.5625 -2e-5,3.37504 0.63279,6.56254 1.89843,9.5625 1.31248,3.00003 3.07029,5.62503 5.27344,7.875 2.2031,2.20315 4.80466,3.96096 7.80469,5.27344 2.99996,1.31252 6.23433,1.96877 9.70312,1.96875 3.42183,2e-5 6.63276,-0.65623 9.63282,-1.96875 2.99994,-1.31248 5.6015,-3.09373 7.80468,-5.34375 2.24994,-2.24997 4.00775,-4.85153 5.27344,-7.80469 1.31243,-2.99996 1.96868,-6.18746 1.96875,-9.5625 -7e-5,-3.37495 -0.65632,-6.53901 -1.96875,-9.49218 -1.26569,-2.99995 -3.0235,-5.62495 -5.27344,-7.875 -2.20318,-2.24994 -4.80474,-4.03119 -7.80468,-5.34375 -3.00006,-1.31244 -6.21099,-1.96869 -9.63282,-1.96875 m 24.67969,56.74218 0,-1.40625 c -3.51569,2.81251 -7.336,4.96876 -11.46094,6.46875 -4.12505,1.50001 -8.5313,2.25 -13.21875,2.25 -10.87503,0 -20.15627,-3.84374 -27.84375,-11.53125 -7.68751,-7.68748 -11.53125,-16.96872 -11.53125,-27.84375 0,-10.87495 3.84374,-20.15619 11.53125,-27.84375 7.68748,-7.68742 16.96872,-11.53117 27.84375,-11.53125 10.7812,8e-5 20.06244,3.84383 27.84375,11.53125 7.68742,7.68756 11.53117,16.9688 11.53125,27.84375 l 0,32.0625 c -8e-5,2.01563 -0.72664,3.75001 -2.17968,5.20313 -1.40633,1.40625 -3.11727,2.10937 -5.13282,2.10937 -2.06257,0 -3.82038,-0.70312 -5.27343,-2.10937 -1.40632,-1.45312 -2.10945,-3.1875 -2.10938,-5.20313"
         style=""
         id="path2996" />
      <path
         d="m 372.24051,353.55081 0,-97.73437 c -10e-6,-2.0624 0.70312,-3.79677 2.10937,-5.20313 1.45312,-1.45301 3.21093,-2.17957 5.27344,-2.17969 2.01561,1.2e-4 3.72655,0.72668 5.13281,2.17969 1.45311,1.40636 2.17967,3.14073 2.17969,5.20313 l 0,54.84375 42.04688,-27.35157 c 1.17181,-0.74992 2.48431,-1.12492 3.9375,-1.125 1.03118,8e-5 1.99212,0.18758 2.88281,0.5625 0.89055,0.37508 1.66399,0.91414 2.32031,1.61719 0.65618,0.65633 1.1718,1.42976 1.54688,2.32031 0.4218,0.8907 0.63274,1.8282 0.63281,2.8125 -7e-5,2.62507 -0.93757,4.57038 -2.8125,5.83594 l -29.46094,19.125 30.23438,34.03125 c 1.3593,1.50001 2.03899,3.21095 2.03906,5.13281 -7e-5,0.98439 -0.21101,1.92188 -0.63281,2.8125 -0.37508,0.89063 -0.8907,1.68751 -1.54688,2.39063 -0.65632,0.65625 -1.42976,1.17188 -2.32031,1.54687 -0.89069,0.375 -1.85163,0.5625 -2.88281,0.5625 -1.96882,0 -3.60944,-0.63281 -4.92188,-1.89843 l -32.48437,-36.49219 -8.57813,5.625 0,25.38281 c -2e-5,2.01563 -0.72658,3.75001 -2.17969,5.20313 -1.40626,1.45312 -3.1172,2.17968 -5.13281,2.17968 -2.06251,0 -3.82032,-0.72656 -5.27344,-2.17968 -1.40625,-1.45312 -2.10938,-3.1875 -2.10937,-5.20313"
         style=""
         id="path2998" />
      <path
         d="m 509.70145,314.24612 c -0.79695,-2.57807 -1.99226,-4.92182 -3.58594,-7.03125 -1.54694,-2.15619 -3.37506,-3.98431 -5.48438,-5.48437 -2.06255,-1.54681 -4.35943,-2.74213 -6.89062,-3.58594 -2.48443,-0.84368 -5.06255,-1.26556 -7.73438,-1.26562 -2.67191,6e-5 -5.27347,0.42194 -7.80468,1.26562 -2.53129,0.84381 -4.8516,2.03913 -6.96094,3.58594 -2.1094,1.50006 -3.93753,3.32818 -5.48438,5.48437 -1.54689,2.10943 -2.69533,4.45318 -3.44531,7.03125 l 47.39063,0 m -3.16407,24.53907 c 2.10931,2e-5 3.84368,0.70314 5.20313,2.10937 1.40618,1.3594 2.1093,3.09377 2.10937,5.20313 -7e-5,2.06251 -0.70319,3.82032 -2.10937,5.27343 -7.26569,6.37501 -15.84381,9.5625 -25.73438,9.5625 -10.87503,0 -20.15627,-3.84374 -27.84375,-11.53125 -7.68751,-7.68748 -11.53125,-16.96872 -11.53125,-27.84375 0,-10.87495 3.84374,-20.15619 11.53125,-27.84375 7.68748,-7.68742 16.96872,-11.53117 27.84375,-11.53125 10.7812,8e-5 20.06244,3.84383 27.84375,11.53125 3.84368,3.79694 6.72649,8.03913 8.64844,12.72657 1.92179,4.64067 2.88273,9.67973 2.88281,15.11718 -8e-5,2.10942 -0.72664,3.86723 -2.17968,5.27344 -1.40633,1.35941 -3.14071,2.0391 -5.20313,2.03906 l -55.6875,0 c 0.79685,2.57816 1.96873,4.94534 3.51563,7.10157 1.54685,2.10939 3.35153,3.93752 5.41406,5.48437 2.10934,1.50002 4.40621,2.67189 6.89062,3.51563 2.53121,0.84376 5.15621,1.26564 7.875,1.26562 3.09371,2e-5 5.92964,-0.46873 8.50782,-1.40625 2.57807,-0.93748 4.96869,-2.34373 7.17187,-4.21875 1.40619,-1.17185 3.02338,-1.78123 4.85156,-1.82812"
         style=""
         id="path3000" />
      <path
         d="m 551.0452,289.49612 0,1.40625 c 3.5156,-2.81242 7.33591,-4.96867 11.46093,-6.46875 4.12497,-1.49992 8.53121,-2.24992 13.21875,-2.25 2.06246,8e-5 4.26558,0.14071 6.60938,0.42188 2.39057,0.28133 4.57026,0.79695 6.53906,1.54687 2.01557,0.70321 3.67963,1.68758 4.99219,2.95313 1.31243,1.2657 1.96868,2.90632 1.96875,4.92187 -7e-5,1.03132 -0.211,1.99226 -0.63281,2.88282 -0.37507,0.89069 -0.89069,1.68756 -1.54688,2.39062 -0.65631,0.65631 -1.42975,1.17194 -2.32031,1.54688 -0.89069,0.37506 -1.85162,0.56256 -2.88281,0.5625 -0.89069,6e-5 -1.92193,-0.25775 -3.09375,-0.77344 -2.95318,-1.17181 -6.16411,-1.75775 -9.63282,-1.75781 -3.42191,6e-5 -6.63285,0.65631 -9.63281,1.96875 -3.00003,1.26568 -5.62503,3.02349 -7.875,5.27343 -2.20315,2.20318 -3.96096,4.80474 -5.27344,7.80469 -1.26564,3.00005 -1.89845,6.21098 -1.89843,9.63281 l 0,32.0625 c -2e-5,2.01563 -0.72659,3.75001 -2.17969,5.20313 -1.40627,1.40625 -3.1172,2.10937 -5.13281,2.10937 -2.06251,0 -3.82032,-0.70312 -5.27344,-2.10937 -1.40626,-1.45312 -2.10938,-3.1875 -2.10938,-5.20313 l 0,-64.125 c 0,-2.01555 0.70312,-3.72648 2.10938,-5.13281 1.45312,-1.45305 3.21093,-2.17961 5.27344,-2.17969 2.01561,8e-5 3.72654,0.72664 5.13281,2.17969 1.4531,1.40633 2.17967,3.11726 2.17969,5.13281"
         style=""
         id="path3002" />
      <path
         d="m 328.8577,533.4805 c -9e-5,2.0625 -0.72665,3.82032 -2.17969,5.27344 -1.45321,1.45312 -3.21102,2.17968 -5.27344,2.17968 -2.06257,0 -3.82038,-0.72656 -5.27344,-2.17968 -1.45319,-1.45312 -2.17975,-3.21094 -2.17968,-5.27344 l 0,-41.34375 -50.13282,0 0,41.34375 c -2e-5,2.0625 -0.72658,3.82032 -2.17968,5.27344 -1.45315,1.45312 -3.21096,2.17968 -5.27344,2.17968 -2.06251,0 -3.82032,-0.72656 -5.27344,-2.17968 -1.45313,-1.45312 -2.17969,-3.21094 -2.17969,-5.27344 l 0,-97.59375 c 0,-2.06239 0.72656,-3.8202 2.17969,-5.27344 1.45312,-1.45301 3.21093,-2.17957 5.27344,-2.17969 2.06248,1.2e-4 3.82029,0.72668 5.27344,2.17969 1.4531,1.45324 2.17966,3.21105 2.17968,5.27344 l 0,41.34375 50.13282,0 0,-41.34375 c -7e-5,-2.06239 0.72649,-3.8202 2.17968,-5.27344 1.45306,-1.45301 3.21087,-2.17957 5.27344,-2.17969 2.06242,1.2e-4 3.82023,0.72668 5.27344,2.17969 1.45304,1.45324 2.1796,3.21105 2.17969,5.27344 l 0,97.59375"
         style=""
         id="path3004" />
      <path
         d="m 405.14676,540.93362 c -2.10945,0 -3.84382,-0.70312 -5.20313,-2.10937 -1.35944,-1.40625 -2.06256,-3.11718 -2.10937,-5.13281 -3.23444,2.53125 -6.65631,4.38281 -10.26563,5.55468 -3.60942,1.125 -7.52348,1.6875 -11.74218,1.6875 -5.01567,0 -9.75004,-0.96093 -14.20313,-2.88281 -4.45315,-1.96874 -8.34377,-4.61718 -11.67187,-7.94531 -3.32814,-3.32811 -5.97658,-7.21873 -7.94532,-11.67188 -1.92188,-4.45309 -2.88281,-9.18746 -2.88281,-14.20312 l 0,-34.73438 c 0,-2.01555 0.70312,-3.72648 2.10938,-5.13281 1.45311,-1.45305 3.21092,-2.17961 5.27343,-2.17969 2.01561,8e-5 3.72655,0.72664 5.13282,2.17969 1.4531,1.40633 2.17966,3.11726 2.17968,5.13281 l 0,34.73438 c -2e-5,3.04691 0.56248,5.90628 1.6875,8.57812 1.17186,2.6719 2.74217,5.01565 4.71094,7.03125 2.0156,1.96877 4.35935,3.53908 7.03125,4.71094 2.67184,1.12502 5.53121,1.68752 8.57813,1.6875 2.99995,2e-5 5.83589,-0.56248 8.50781,-1.6875 2.67182,-1.17186 5.01557,-2.7656 7.03125,-4.78125 2.01556,-2.0156 3.58588,-4.33591 4.71094,-6.96094 1.17181,-2.67184 1.75774,-5.53121 1.75781,-8.57812 l 0,-34.73438 c -7e-5,-2.01555 0.70306,-3.72648 2.10937,-5.13281 1.45306,-1.45305 3.21087,-2.17961 5.27344,-2.17969 2.01555,8e-5 3.72649,0.72664 5.13281,2.17969 1.45305,1.40633 2.17961,3.11726 2.17969,5.13281 l 0,64.125 c -8e-5,2.01563 -0.72664,3.75001 -2.17969,5.20313 -1.40632,1.40625 -3.14069,2.10937 -5.20312,2.10937"
         style=""
         id="path3006" />
      <path
         d="m 462.94363,526.23831 c 3.42183,2e-5 6.63276,-0.65623 9.63282,-1.96875 2.99994,-1.31248 5.6015,-3.09373 7.80468,-5.34375 2.24994,-2.24997 4.00775,-4.85153 5.27344,-7.80469 1.31243,-2.99996 1.96868,-6.18746 1.96875,-9.5625 -7e-5,-3.37495 -0.65632,-6.53901 -1.96875,-9.49218 -1.26569,-2.99995 -3.0235,-5.62495 -5.27344,-7.875 -2.20318,-2.24994 -4.80474,-4.03119 -7.80468,-5.34375 -3.00006,-1.31244 -6.21099,-1.96869 -9.63282,-1.96875 -3.46879,6e-5 -6.70316,0.65631 -9.70312,1.96875 -3.00003,1.31256 -5.60159,3.09381 -7.80469,5.34375 -2.20315,2.20318 -3.96096,4.80474 -5.27344,7.80468 -1.26564,3.00005 -1.89845,6.18755 -1.89843,9.5625 -2e-5,3.37504 0.63279,6.56254 1.89843,9.5625 1.31248,3.00003 3.07029,5.62503 5.27344,7.875 2.2031,2.20315 4.80466,3.96096 7.80469,5.27344 2.99996,1.31252 6.23433,1.96877 9.70312,1.96875 m -24.67968,-55.33594 c 6.98434,-5.81242 15.2109,-8.71867 24.67968,-8.71875 10.7812,8e-5 20.06244,3.84383 27.84375,11.53125 3.84368,3.79694 6.72649,8.03913 8.64844,12.72657 1.92179,4.64067 2.88273,9.67973 2.88281,15.11718 -8e-5,10.96878 -3.84383,20.25002 -11.53125,27.84375 -7.78131,7.68751 -17.06255,11.53125 -27.84375,11.53125 -10.87503,0 -20.15627,-3.84374 -27.84375,-11.53125 -7.68751,-7.68748 -11.53125,-16.96872 -11.53125,-27.84375 l 0,-65.8125 c 0,-2.10926 0.67969,-3.84364 2.03907,-5.20312 1.40624,-1.40614 3.16405,-2.10926 5.27343,-2.10938 2.06249,1.2e-4 3.79686,0.70324 5.20313,2.10938 1.4531,1.35948 2.17967,3.09386 2.17969,5.20312 l 0,35.15625"
         style=""
         id="path3008" />
    </g>
  </g>
</svg>
